<svg xmlns="http://www.w3.org/2000/svg" viewBox="0 0 512 512">
  <defs>
    <linearGradient id="bg" x1="0%" y1="0%" x2="100%" y2="100%">
      <stop offset="0%" stop-color="#0b3d5c" />
      <stop offset="100%" stop-color="#2a9d8f" />
    </linearGradient>
  </defs>
  <rect width="512" height="512" rx="96" fill="url(#bg)" />
  <path
    d="M122 286c40-48 111-88 187-90 17-20 42-33 69-33 4 0 8 0 12 1-18 17-30 41-31 69 21 20 34 48 34 79 0 9-1 17-3 25-14-18-36-29-59-29-17 0-33 6-46 16-33 62-92 97-183 109 34-22 59-47 74-76-34-6-62-22-82-45 11-8 20-17 28-26z"
    fill="#f4fbff"
    opacity="0.92"
  />
  <circle cx="331" cy="214" r="11" fill="#0b3d5c" />
</svg>
